<?xml version="1.0" encoding="UTF-8"?>
<svg width="256px" height="256px" viewBox="0 0 256 256" version="1.1" xmlns="http://www.w3.org/2000/svg" xmlns:xlink="http://www.w3.org/1999/xlink">
    <title>Group</title>
    <g id="Page-1" stroke="none" stroke-width="1" fill="none" fill-rule="evenodd">
        <g id="Group">
            <path d="M89.735982,0 L166.264018,0 C197.467174,0 208.782192,3.24889639 220.1896,9.34964463 C231.597007,15.4503929 240.549607,24.402993 246.650355,35.8104004 C252.751104,47.2178078 256,58.5328261 256,89.735982 L256,166.264018 C256,197.467174 252.751104,208.782192 246.650355,220.1896 C240.549607,231.597007 231.597007,240.549607 220.1896,246.650355 C208.782192,252.751104 197.467174,256 166.264018,256 L89.735982,256 C58.5328261,256 47.2178078,252.751104 35.8104004,246.650355 C24.402993,240.549607 15.4503929,231.597007 9.34964463,220.1896 C3.24889639,208.782192 0,197.467174 0,166.264018 L0,89.735982 C0,58.5328261 3.24889639,47.2178078 9.34964463,35.8104004 C15.4503929,24.402993 24.402993,15.4503929 35.8104004,9.34964463 C47.2178078,3.24889639 58.5328261,0 89.735982,0 Z" id="Rectangle" fill="#008B47"></path>
            <text id=".png-.json" opacity="0.503092448" font-family="Monaco" font-size="13" font-weight="normal" letter-spacing="-0.5" fill="#FFFFFF">
                <tspan x="150.987305" y="158">.png .json</tspan>
            </text>
            <g id="Sprite_Logo" transform="translate(33.000000, 78.000000)" fill-rule="nonzero">
                <path d="M6.55427473,56.1935573 L0,72.0644196 C0,72.0644196 10.3324843,74.8378872 19.7396134,73.3741292 C29.1467426,71.9103712 43.1032603,60.8932265 44.3369675,49.8757833 C45.5706747,38.85834 38.7851359,32.8492598 35.3926653,28.6887598 C31.9998959,24.5285584 32.5398108,20.8302036 36.8576365,18.5188811 C41.175761,16.2075586 48.038089,16.5926795 52.3562135,24.2201632 L57.3678314,11.739559 C57.3678314,11.739559 44.3366687,5.65315605 30.5346258,12.2787283 C16.7325829,18.9043005 16.7322841,31.8479454 19.2767865,37.0097597 C21.8212889,42.1715739 29.3006199,44.0977756 29.5321827,50.2612027 C29.7634468,56.4246299 25.6768852,61.3553716 18.5059063,61.2783474 C11.3349273,61.2013232 10.1783082,60.045662 6.55427473,56.1935573 L6.55427473,56.1935573 Z M48.7124598,78.1896332 C48.7124598,78.1896332 52.5871788,68.7132707 56.5775297,57.6767206 C65.1363919,34.2748042 66.987102,32.541163 70.0520979,32.4256268 C73.1170938,32.3100905 72.5966003,35.5460017 72.4809682,38.5505418 C72.0761067,48.3735132 58.6595039,62.7035933 56.2306336,64.6103896 C53.5558585,66.4306083 54.3799235,66.3873195 55.0548919,66.2861133 C77.1848316,62.9731779 83.5075435,44.6369448 84.0471597,41.4010336 C86.2833099,26.7628568 77.8786238,25.9152922 73.4834113,26.1463648 C69.0881988,26.3774373 55.363244,28.1495906 55.363244,28.1495906 L35.3923665,80 L48.7124598,78.1896332 Z M91.3720158,61.0472749 C91.3720158,61.0472749 100.23923,38.4735177 100.933321,36.5473161 C105.636886,29.2282276 112.807865,31.0000823 112.807865,31.0000823 L117.434341,19.2123973 C117.434341,19.2123973 115.198191,18.7502522 110.417538,20.136986 C105.636886,21.5237198 101.164585,27.5330986 101.164585,27.5330986 L103.015295,21.7547923 L93.5310781,22.7564052 L77.878325,62.6647827 L91.3720158,61.0472749 Z M120.750023,18.9816233 L105.174358,58.9670249 L118.899312,57.5032669 L134.474977,17.3635184 L120.750023,18.9816233 Z M145.578641,9.19716399 L143.034138,16.4392282 L137.251043,16.7473249 L133.704097,26.3777359 L139.410105,25.992615 L127.304297,56.1935573 L140.7209,54.4987268 L152.672532,23.8353408 L159.149419,22.9877763 L162.619277,13.6654621 L156.142389,14.3589783 L160.845954,2.5712932 L145.578641,9.19716399 Z M185.674273,36.3162435 C185.093424,37.1142498 177.192499,45.9466544 171.023963,44.1747997 C164.855427,42.402945 167.168665,35.5460017 169.173253,31.462526 C171.178139,27.3793488 176.961235,15.8227362 180.816532,16.5932766 C182.43568,17.2867928 182.589856,19.9832362 176.575496,27.8414938 C175.418877,29.5363244 174.030993,31.0003809 169.635781,33.7738485 C169.173253,34.6984372 169.250341,35.7770742 178.194643,32.6952114 C187.138945,29.6133485 190.763278,22.9877763 190.994542,17.825962 C191.225806,12.6641477 184.055126,10.9690187 179.582825,11.9706316 C175.110525,12.9722445 162.310925,16.4392282 154.754207,34.1592679 C153.212148,37.3181549 150.050642,50.9547189 163.544333,52.1874043 C168.247898,52.5725252 179.119998,50.0301302 186.830593,38.0883967 C187.139543,37.2408322 186.291276,35.4689775 185.674273,36.3162435 Z M138.349696,1.16545263 C136.098009,-1.08436994 131.340363,0.0214345725 127.723202,3.63560019 C124.106041,7.24976581 122.99932,12.0034713 125.251007,14.2532939 C127.502694,16.5031165 132.26034,15.397312 135.877501,11.7831464 C139.494663,8.1686822 140.601384,3.41527521 138.349696,1.16545263 Z" id="Shape" fill="#FFFFFF"></path>
                <path d="M138.349696,1.16545263 C136.098009,-1.08436994 131.340363,0.0214345725 127.723202,3.63560019 C124.106041,7.24976581 122.99932,12.0034713 125.251007,14.2532939 C127.502694,16.5031165 132.26034,15.397312 135.877501,11.7831464 C139.494663,8.1686822 140.601384,3.41527521 138.349696,1.16545263 Z" id="Path" fill="#F8CF29"></path>
            </g>
        </g>
    </g>
</svg>